<mxfile host="app.diagrams.net" modified="2022-06-12T01:46:03.637Z" agent="5.0 (Macintosh; Intel Mac OS X 10_15_7) AppleWebKit/537.36 (KHTML, like Gecko) Chrome/102.0.5005.115 Safari/537.36" etag="nDJL8VFb_eXRU4gTs6Tc" version="20.0.0" type="github">
  <diagram id="I3x_HTVqxk896zODRNAK" name="Page-1">
    <mxGraphModel dx="1426" dy="780" grid="1" gridSize="10" guides="1" tooltips="1" connect="1" arrows="1" fold="1" page="1" pageScale="1" pageWidth="827" pageHeight="1169" math="0" shadow="0">
      <root>
        <mxCell id="0" />
        <mxCell id="1" parent="0" />
        <mxCell id="NnzlWp7XtxCSNS85CgWB-1" value="&lt;b&gt;&lt;font style=&quot;font-size: 15px;&quot;&gt;GESTORES DE BASE DE DATOS&lt;/font&gt;&lt;/b&gt;" style="rounded=1;whiteSpace=wrap;html=1;" vertex="1" parent="1">
          <mxGeometry x="350" y="50" width="130" height="60" as="geometry" />
        </mxCell>
        <mxCell id="NnzlWp7XtxCSNS85CgWB-2" value="&lt;h3 style=&quot;box-sizing: border-box; margin-top: 24px; margin-bottom: 16px; line-height: 1.25; color: rgb(36, 41, 47); font-family: -apple-system, &amp;quot;system-ui&amp;quot;, &amp;quot;Segoe UI&amp;quot;, Helvetica, Arial, sans-serif, &amp;quot;Apple Color Emoji&amp;quot;, &amp;quot;Segoe UI Emoji&amp;quot;; background-color: rgb(255, 255, 255);&quot; dir=&quot;auto&quot;&gt;&lt;font style=&quot;font-size: 16px;&quot;&gt;MySQL Workbench&lt;/font&gt;&lt;/h3&gt;" style="rounded=1;whiteSpace=wrap;html=1;align=center;" vertex="1" parent="1">
          <mxGeometry x="100" y="180" width="120" height="60" as="geometry" />
        </mxCell>
        <mxCell id="NnzlWp7XtxCSNS85CgWB-3" value="CARACTERISTICAS:&lt;br&gt;&lt;br&gt;&lt;span style=&quot;color: rgb(36, 41, 47); font-family: -apple-system, &amp;quot;system-ui&amp;quot;, &amp;quot;Segoe UI&amp;quot;, Helvetica, Arial, sans-serif, &amp;quot;Apple Color Emoji&amp;quot;, &amp;quot;Segoe UI Emoji&amp;quot;; text-align: start; background-color: rgb(255, 255, 255);&quot;&gt;&lt;font style=&quot;font-size: 11px;&quot;&gt;Un editor visual de base de datos MySQL que cuenta con el respaldo oficial de MySQL. Sin duda la herramienta se caracteriza por su editor de diagramas.&lt;br&gt;&lt;/font&gt;&lt;/span&gt;&lt;span style=&quot;color: rgb(36, 41, 47); font-family: -apple-system, &amp;quot;system-ui&amp;quot;, &amp;quot;Segoe UI&amp;quot;, Helvetica, Arial, sans-serif, &amp;quot;Apple Color Emoji&amp;quot;, &amp;quot;Segoe UI Emoji&amp;quot;; text-align: start; background-color: rgb(255, 255, 255);&quot;&gt;&lt;font style=&quot;font-size: 11px;&quot;&gt;Workbench es un software libre disponible para Windows Mac OS X y Linux.&lt;/font&gt;&lt;/span&gt;&lt;span style=&quot;color: rgb(36, 41, 47); font-family: -apple-system, &amp;quot;system-ui&amp;quot;, &amp;quot;Segoe UI&amp;quot;, Helvetica, Arial, sans-serif, &amp;quot;Apple Color Emoji&amp;quot;, &amp;quot;Segoe UI Emoji&amp;quot;; text-align: start; background-color: rgb(255, 255, 255);&quot;&gt;&lt;font style=&quot;font-size: 11px;&quot;&gt;&lt;br&gt;&lt;/font&gt;&lt;/span&gt;" style="rounded=1;whiteSpace=wrap;html=1;" vertex="1" parent="1">
          <mxGeometry x="80" y="280" width="180" height="280" as="geometry" />
        </mxCell>
        <mxCell id="NnzlWp7XtxCSNS85CgWB-4" value="&lt;b&gt;VENTAJAS:&lt;/b&gt;&lt;br&gt;&lt;br&gt;&lt;span style=&quot;color: rgb(36, 41, 47); font-family: -apple-system, &amp;quot;system-ui&amp;quot;, &amp;quot;Segoe UI&amp;quot;, Helvetica, Arial, sans-serif, &amp;quot;Apple Color Emoji&amp;quot;, &amp;quot;Segoe UI Emoji&amp;quot;; text-align: start; background-color: rgb(255, 255, 255);&quot;&gt;&lt;font style=&quot;font-size: 11px;&quot;&gt;Desde su lienzo podrás arrastrar elementos desde el catálogo o bien añadirlos desde la opción herramientas, disponible en el menú lateral. Y si deseas analizar visualmente el esquema podrás exportarlo en formato imagen o PDF o bien generar un script SQL CREATE o ALTER.&amp;nbsp;&lt;/font&gt;&lt;/span&gt;&lt;span style=&quot;color: rgb(36, 41, 47); font-family: -apple-system, &amp;quot;system-ui&amp;quot;, &amp;quot;Segoe UI&amp;quot;, Helvetica, Arial, sans-serif, &amp;quot;Apple Color Emoji&amp;quot;, &amp;quot;Segoe UI Emoji&amp;quot;; text-align: start; background-color: rgb(255, 255, 255);&quot;&gt;&lt;font style=&quot;&quot;&gt;&lt;span style=&quot;font-size: 11px;&quot;&gt;MySQL Workbench es un software libre disponible para Windows Mac OS X y Linux.&lt;/span&gt;&lt;br&gt;&lt;br&gt;&lt;b style=&quot;&quot;&gt;&lt;font style=&quot;font-size: 12px;&quot;&gt;DESVENTAJAS:&lt;br&gt;&lt;/font&gt;&lt;/b&gt;&lt;br&gt;&lt;/font&gt;&lt;/span&gt;&lt;span style=&quot;color: rgb(36, 41, 47); font-family: -apple-system, &amp;quot;system-ui&amp;quot;, &amp;quot;Segoe UI&amp;quot;, Helvetica, Arial, sans-serif, &amp;quot;Apple Color Emoji&amp;quot;, &amp;quot;Segoe UI Emoji&amp;quot;; text-align: start; background-color: rgb(255, 255, 255);&quot;&gt;&lt;font style=&quot;font-size: 11px;&quot;&gt;La herramienta dispone de una versión comercial la cual dispone de una validación del modelado o la opción de ingeniaría inversa de base de datos, características no disponibles en la versión gratuita.&lt;/font&gt;&lt;/span&gt;&lt;span style=&quot;color: rgb(36, 41, 47); font-family: -apple-system, &amp;quot;system-ui&amp;quot;, &amp;quot;Segoe UI&amp;quot;, Helvetica, Arial, sans-serif, &amp;quot;Apple Color Emoji&amp;quot;, &amp;quot;Segoe UI Emoji&amp;quot;; text-align: start; background-color: rgb(255, 255, 255);&quot;&gt;&lt;font style=&quot;&quot;&gt;&lt;br&gt;&lt;br&gt;&lt;br&gt;&lt;/font&gt;&lt;/span&gt;" style="rounded=1;whiteSpace=wrap;html=1;" vertex="1" parent="1">
          <mxGeometry x="92.5" y="670" width="155" height="480" as="geometry" />
        </mxCell>
        <mxCell id="NnzlWp7XtxCSNS85CgWB-5" value="&lt;b&gt;&lt;font style=&quot;font-size: 15px;&quot;&gt;phpMyAdmin&lt;/font&gt;&lt;/b&gt;" style="rounded=1;whiteSpace=wrap;html=1;" vertex="1" parent="1">
          <mxGeometry x="360" y="180" width="120" height="60" as="geometry" />
        </mxCell>
        <mxCell id="NnzlWp7XtxCSNS85CgWB-6" value="&lt;span style=&quot;&quot;&gt;CARACTERISTICAS:&lt;br&gt;&lt;/span&gt;&lt;span style=&quot;color: rgb(36, 41, 47); font-family: -apple-system, &amp;quot;system-ui&amp;quot;, &amp;quot;Segoe UI&amp;quot;, Helvetica, Arial, sans-serif, &amp;quot;Apple Color Emoji&amp;quot;, &amp;quot;Segoe UI Emoji&amp;quot;; text-align: start; background-color: rgb(255, 255, 255);&quot;&gt;&lt;font style=&quot;font-size: 11px;&quot;&gt;&lt;br&gt;Posibilidad de crear y manejar bases de datos de forma local bajo un entorno web. Posibilidad de crear, gestionar y eliminar bases de datos, tablas y campos. Es también capaz de ejecutar secuencias de comandos SQL. phpMyAdmin sin duda esta orientadas a usuarios profesionales&lt;/font&gt;&lt;/span&gt;&lt;span style=&quot;&quot;&gt;&lt;br&gt;&lt;/span&gt;" style="rounded=1;whiteSpace=wrap;html=1;" vertex="1" parent="1">
          <mxGeometry x="335" y="280" width="170" height="280" as="geometry" />
        </mxCell>
        <mxCell id="NnzlWp7XtxCSNS85CgWB-7" value="&lt;span style=&quot;&quot;&gt;&lt;b&gt;VENTAJAS:&lt;br&gt;&lt;br&gt;&lt;/b&gt;&lt;/span&gt;&lt;span style=&quot;color: rgb(36, 41, 47); font-family: -apple-system, &amp;quot;system-ui&amp;quot;, &amp;quot;Segoe UI&amp;quot;, Helvetica, Arial, sans-serif, &amp;quot;Apple Color Emoji&amp;quot;, &amp;quot;Segoe UI Emoji&amp;quot;; text-align: start; background-color: rgb(255, 255, 255);&quot;&gt;&lt;font style=&quot;font-size: 11px;&quot;&gt;Con la aplicación podrás importar en CSV y SQL y exportar en CSV, SQL, XML, PDF, ISO / IEC 26300, Word y Excel entre otros. phpMyAdmin es una herramienta de software libre disponible en español y desarrollada bajo entorno PHP.&lt;br&gt;&lt;/font&gt;&lt;/span&gt;&lt;span style=&quot;&quot;&gt;&lt;br&gt;&lt;b&gt;DESVENTAJAS:&lt;/b&gt;&lt;br&gt;&lt;br&gt;&lt;font style=&quot;font-size: 11px;&quot;&gt;- Para Usuarios Avanzados.&lt;br&gt;&lt;/font&gt;- Entorno web pero gestión&amp;nbsp;local (disco duro local)&lt;br&gt;&lt;/span&gt;" style="rounded=1;whiteSpace=wrap;html=1;" vertex="1" parent="1">
          <mxGeometry x="335" y="710" width="190" height="330" as="geometry" />
        </mxCell>
        <mxCell id="NnzlWp7XtxCSNS85CgWB-8" value="&lt;font style=&quot;font-size: 16px;&quot;&gt;&lt;b&gt;db-fiddle&lt;/b&gt;&lt;/font&gt;" style="rounded=1;whiteSpace=wrap;html=1;" vertex="1" parent="1">
          <mxGeometry x="660" y="180" width="120" height="60" as="geometry" />
        </mxCell>
        <mxCell id="NnzlWp7XtxCSNS85CgWB-9" value="&lt;span style=&quot;&quot;&gt;CARACTERISTICAS:&lt;br&gt;&lt;br&gt;&lt;/span&gt;&lt;span style=&quot;color: rgb(36, 41, 47); font-family: -apple-system, &amp;quot;system-ui&amp;quot;, &amp;quot;Segoe UI&amp;quot;, Helvetica, Arial, sans-serif, &amp;quot;Apple Color Emoji&amp;quot;, &amp;quot;Segoe UI Emoji&amp;quot;; text-align: start; background-color: rgb(255, 255, 255);&quot;&gt;&lt;font style=&quot;font-size: 11px;&quot;&gt;Es una herramienta online que nos permite la simulación de una base de datos a través de un script SQL podemos hacer desde crear una base de datos hasta hacer consultas de tipo ddl.&lt;/font&gt;&lt;/span&gt;&lt;span style=&quot;&quot;&gt;&lt;br&gt;&lt;/span&gt;" style="rounded=1;whiteSpace=wrap;html=1;" vertex="1" parent="1">
          <mxGeometry x="635" y="280" width="165" height="280" as="geometry" />
        </mxCell>
        <mxCell id="NnzlWp7XtxCSNS85CgWB-10" value="&lt;b style=&quot;&quot;&gt;&lt;font style=&quot;font-size: 12px;&quot;&gt;VENTAJAS:&lt;/font&gt;&lt;/b&gt;&lt;br&gt;&lt;br&gt;&lt;font style=&quot;font-size: 11px;&quot;&gt;&lt;font style=&quot;font-size: 11px;&quot;&gt;Herramienta de gestión totalmente online.&lt;br&gt;&lt;/font&gt;&lt;span style=&quot;color: rgb(36, 41, 47); font-family: -apple-system, &amp;quot;system-ui&amp;quot;, &amp;quot;Segoe UI&amp;quot;, Helvetica, Arial, sans-serif, &amp;quot;Apple Color Emoji&amp;quot;, &amp;quot;Segoe UI Emoji&amp;quot;; text-align: start; background-color: rgb(255, 255, 255);&quot;&gt;&lt;font style=&quot;font-size: 11px;&quot;&gt;Opciones de los diferentes gestores de base de datos.&lt;br&gt;Compatibilidad con gestor MySQL.&lt;br&gt;&lt;/font&gt;&lt;/span&gt;&lt;/font&gt;&lt;br&gt;&lt;b style=&quot;font-size: 11px;&quot;&gt;DESVENTAJAS:&lt;/b&gt;&lt;br&gt;&lt;br&gt;&lt;span style=&quot;font-size: 11px;&quot;&gt;Limitación&amp;nbsp;de funciones en su versión gratuita.&lt;/span&gt;&lt;br&gt;" style="rounded=1;whiteSpace=wrap;html=1;" vertex="1" parent="1">
          <mxGeometry x="635" y="700" width="165" height="340" as="geometry" />
        </mxCell>
        <mxCell id="NnzlWp7XtxCSNS85CgWB-12" value="" style="endArrow=classic;html=1;rounded=0;fontSize=11;exitX=0;exitY=0.5;exitDx=0;exitDy=0;entryX=0.5;entryY=0;entryDx=0;entryDy=0;" edge="1" parent="1" source="NnzlWp7XtxCSNS85CgWB-1" target="NnzlWp7XtxCSNS85CgWB-2">
          <mxGeometry width="50" height="50" relative="1" as="geometry">
            <mxPoint x="480" y="340" as="sourcePoint" />
            <mxPoint x="170" y="130" as="targetPoint" />
          </mxGeometry>
        </mxCell>
        <mxCell id="NnzlWp7XtxCSNS85CgWB-13" value="" style="endArrow=classic;html=1;rounded=0;fontSize=11;exitX=0.5;exitY=1;exitDx=0;exitDy=0;entryX=0.45;entryY=-0.033;entryDx=0;entryDy=0;entryPerimeter=0;" edge="1" parent="1" source="NnzlWp7XtxCSNS85CgWB-1" target="NnzlWp7XtxCSNS85CgWB-5">
          <mxGeometry width="50" height="50" relative="1" as="geometry">
            <mxPoint x="480" y="340" as="sourcePoint" />
            <mxPoint x="415" y="170" as="targetPoint" />
          </mxGeometry>
        </mxCell>
        <mxCell id="NnzlWp7XtxCSNS85CgWB-14" value="" style="endArrow=classic;html=1;rounded=0;fontSize=11;entryX=0.5;entryY=0;entryDx=0;entryDy=0;exitX=1;exitY=0.5;exitDx=0;exitDy=0;" edge="1" parent="1" source="NnzlWp7XtxCSNS85CgWB-1" target="NnzlWp7XtxCSNS85CgWB-8">
          <mxGeometry width="50" height="50" relative="1" as="geometry">
            <mxPoint x="540" y="150" as="sourcePoint" />
            <mxPoint x="590" y="100" as="targetPoint" />
          </mxGeometry>
        </mxCell>
        <mxCell id="NnzlWp7XtxCSNS85CgWB-16" value="" style="endArrow=classic;html=1;rounded=0;fontSize=11;exitX=0.5;exitY=1;exitDx=0;exitDy=0;entryX=0.417;entryY=0.004;entryDx=0;entryDy=0;entryPerimeter=0;" edge="1" parent="1" source="NnzlWp7XtxCSNS85CgWB-2" target="NnzlWp7XtxCSNS85CgWB-3">
          <mxGeometry width="50" height="50" relative="1" as="geometry">
            <mxPoint x="360" y="90" as="sourcePoint" />
            <mxPoint x="170" y="190" as="targetPoint" />
          </mxGeometry>
        </mxCell>
        <mxCell id="NnzlWp7XtxCSNS85CgWB-17" value="" style="endArrow=classic;html=1;rounded=0;fontSize=11;exitX=0.5;exitY=1;exitDx=0;exitDy=0;entryX=0.5;entryY=0;entryDx=0;entryDy=0;" edge="1" parent="1" source="NnzlWp7XtxCSNS85CgWB-5" target="NnzlWp7XtxCSNS85CgWB-6">
          <mxGeometry width="50" height="50" relative="1" as="geometry">
            <mxPoint x="170" y="250" as="sourcePoint" />
            <mxPoint x="165.05999999999995" y="291.1199999999999" as="targetPoint" />
          </mxGeometry>
        </mxCell>
        <mxCell id="NnzlWp7XtxCSNS85CgWB-18" value="" style="endArrow=classic;html=1;rounded=0;fontSize=11;exitX=0.5;exitY=1;exitDx=0;exitDy=0;entryX=0.5;entryY=0;entryDx=0;entryDy=0;" edge="1" parent="1" source="NnzlWp7XtxCSNS85CgWB-8" target="NnzlWp7XtxCSNS85CgWB-9">
          <mxGeometry width="50" height="50" relative="1" as="geometry">
            <mxPoint x="430" y="250" as="sourcePoint" />
            <mxPoint x="430" y="290" as="targetPoint" />
          </mxGeometry>
        </mxCell>
        <mxCell id="NnzlWp7XtxCSNS85CgWB-20" value="" style="endArrow=classic;html=1;rounded=0;fontSize=11;exitX=0.461;exitY=1.004;exitDx=0;exitDy=0;exitPerimeter=0;entryX=0.5;entryY=0;entryDx=0;entryDy=0;" edge="1" parent="1" source="NnzlWp7XtxCSNS85CgWB-3" target="NnzlWp7XtxCSNS85CgWB-4">
          <mxGeometry width="50" height="50" relative="1" as="geometry">
            <mxPoint x="170" y="250" as="sourcePoint" />
            <mxPoint x="320" y="600" as="targetPoint" />
          </mxGeometry>
        </mxCell>
        <mxCell id="NnzlWp7XtxCSNS85CgWB-21" value="" style="endArrow=classic;html=1;rounded=0;fontSize=11;exitX=0.461;exitY=1.004;exitDx=0;exitDy=0;exitPerimeter=0;entryX=0.5;entryY=0;entryDx=0;entryDy=0;" edge="1" parent="1" target="NnzlWp7XtxCSNS85CgWB-7">
          <mxGeometry width="50" height="50" relative="1" as="geometry">
            <mxPoint x="426.49" y="559.9999999999999" as="sourcePoint" />
            <mxPoint x="433.51" y="668.88" as="targetPoint" />
          </mxGeometry>
        </mxCell>
        <mxCell id="NnzlWp7XtxCSNS85CgWB-22" value="" style="endArrow=classic;html=1;rounded=0;fontSize=11;exitX=0.461;exitY=1.004;exitDx=0;exitDy=0;exitPerimeter=0;" edge="1" parent="1">
          <mxGeometry width="50" height="50" relative="1" as="geometry">
            <mxPoint x="718.25" y="560" as="sourcePoint" />
            <mxPoint x="722" y="700" as="targetPoint" />
          </mxGeometry>
        </mxCell>
      </root>
    </mxGraphModel>
  </diagram>
</mxfile>
